<?xml version="1.0" standalone="no"?>
<!DOCTYPE svg PUBLIC "-//W3C//DTD SVG 20010904//EN"
 "http://www.w3.org/TR/2001/REC-SVG-20010904/DTD/svg10.dtd">
<svg version="1.0"
    xmlns="http://www.w3.org/2000/svg" width="820.000000pt" height="711.000000pt" viewBox="0 0 820.000000 711.000000" preserveAspectRatio="xMidYMid meet">

    <g transform="translate(0.000000,711.000000) scale(0.100000,-0.100000)" fill="#B3005E" stroke="none">
        <path d="M4048 6689 c-73 -17 -154 -66 -207 -126 -140 -156 -133 -390 16 -538
27 -27 77 -62 113 -79 59 -28 74 -31 165 -31 127 0 190 23 267 98 96 93 134
186 126 315 -10 166 -117 303 -274 352 -69 21 -143 24 -206 9z"/>
        <path d="M3800 5840 c-125 -81 -252 -90 -385 -26 -112 53 -194 49 -258 -12
-67 -63 -89 -159 -52 -235 10 -21 54 -70 99 -110 131 -116 203 -212 290 -385
114 -229 176 -484 176 -728 l0 -114 -119 0 c-117 0 -119 0 -167 -32 -56 -38
-91 -95 -100 -159 -7 -56 24 -119 79 -163 l39 -31 164 -3 164 -3 0 -40 c0
-137 -52 -539 -96 -744 -35 -159 -93 -354 -148 -495 -49 -126 -68 -168 -157
-340 -33 -63 -78 -152 -101 -198 -24 -45 -47 -82 -52 -82 -5 0 -28 -9 -51 -20
-71 -34 -88 -111 -35 -160 17 -15 30 -34 30 -42 0 -7 -29 -58 -65 -113 -79
-122 -151 -264 -170 -336 -17 -64 -19 -227 -4 -301 16 -80 54 -179 88 -233 17
-27 31 -57 31 -68 0 -10 -20 -41 -44 -67 -33 -38 -46 -61 -55 -106 -6 -32 -11
-66 -11 -76 0 -17 43 -18 1210 -18 962 0 1210 3 1210 13 -1 26 -27 133 -37
152 -6 11 -25 33 -42 49 -38 36 -39 54 -5 108 81 128 109 238 101 405 -4 97
-10 133 -34 203 -33 94 -105 241 -158 324 -32 51 -38 86 -13 86 21 0 58 50 58
79 0 51 -20 80 -71 103 -46 22 -48 25 -152 222 -189 360 -264 555 -338 879
-40 178 -66 351 -89 597 -11 113 -20 208 -20 213 0 4 60 7 134 7 145 0 176 7
219 48 41 39 57 74 57 127 0 78 -30 132 -104 186 -37 27 -44 29 -143 29 l-103
0 0 98 c0 316 102 657 273 912 28 41 105 129 172 195 132 130 152 164 141 237
-7 43 -40 100 -77 135 -61 56 -145 58 -255 6 -134 -64 -242 -57 -375 23 l-57
34 -51 -34 c-149 -101 -280 -101 -437 -1 -30 19 -55 35 -57 34 -1 0 -22 -13
-47 -29z"/>
    </g>
</svg>
